<svg xmlns="http://www.w3.org/2000/svg" viewBox="0 0 64 64" fill="none">
  <defs>
    <linearGradient id="bg" x1="8" y1="6" x2="56" y2="58" gradientUnits="userSpaceOnUse">
      <stop stop-color="#fff5fb" />
      <stop offset=".58" stop-color="#ffe5f1" />
      <stop offset="1" stop-color="#fff0c9" />
    </linearGradient>
    <linearGradient id="pop" x1="18" y1="12" x2="48" y2="45" gradientUnits="userSpaceOnUse">
      <stop stop-color="#ff8fc2" />
      <stop offset=".58" stop-color="#f4559d" />
      <stop offset="1" stop-color="#d83d86" />
    </linearGradient>
    <linearGradient id="stick" x1="31" y1="34" x2="41" y2="62" gradientUnits="userSpaceOnUse">
      <stop stop-color="#c58a4a" />
      <stop offset="1" stop-color="#8d5529" />
    </linearGradient>
    <filter id="shadow" x="6" y="5" width="52" height="55" color-interpolation-filters="sRGB" filterUnits="userSpaceOnUse">
      <feDropShadow dx="0" dy="4" stdDeviation="3.5" flood-color="#8f3c60" flood-opacity=".2" />
    </filter>
  </defs>

  <rect x="5" y="5" width="54" height="54" rx="17" fill="url(#bg)" />
  <g filter="url(#shadow)">
    <path d="M33.5 35.5 43 54" stroke="url(#stick)" stroke-linecap="round" stroke-width="7.5" />
    <circle cx="29.5" cy="25.5" r="17.5" fill="url(#pop)" />
    <path
      d="M17 23.5c1.7-7 7-11 13.4-11 5.6 0 10.7 3.3 13.2 8.3"
      stroke="#ffd4e7"
      stroke-linecap="round"
      stroke-width="4.5"
    />
    <path d="M20.5 31.5c5.6 4.8 12.6 4.4 18.4-.4" stroke="#9f2d68" stroke-linecap="round" stroke-opacity=".3" stroke-width="3.5" />
    <circle cx="22" cy="20" r="2.2" fill="#fff8b7" />
    <circle cx="31" cy="15.8" r="2" fill="#7bd0ff" />
    <circle cx="38.5" cy="23.2" r="2.1" fill="#fff8b7" />
    <circle cx="27.2" cy="29.5" r="2.1" fill="#ffffff" />
    <path d="M20 26.5 24 24" stroke="#7bd0ff" stroke-linecap="round" stroke-width="2.4" />
    <path d="m34.5 29 4 2.6" stroke="#ffffff" stroke-linecap="round" stroke-width="2.4" />
    <path d="m27 22.2 3.9 2.3" stroke="#fff8b7" stroke-linecap="round" stroke-width="2.4" />
  </g>
</svg>
